ply
format ascii 1.0
obj_info can-00000.jpg
obj_info can-00001.jpg
obj_info can-00002.jpg
obj_info can-00003.jpg
obj_info can-00004.jpg
obj_info can-00005.jpg
obj_info can-00006.jpg
element vertex 192
property float x
property float y
property float z
property float nx
property float ny
property float nz
element face 92
property list uchar uint vertex_indices
element pass 7
property list uchar uint face_indices
property float m0
property float m1
property float m2
property float m3
property float m4
property float m5
property float m6
property float m7
property float m8
property float m9
property float m10
property float m11
property float m12
property float m13
property float m14
property float m15
property float x
property float y
property float w
property float h
property uchar tex_index
end_header
0.000000 0.070000 -0.100000 0.098017 0.995185 0.000000
0.000000 0.070000 0.100000 0.098017 0.995185 0.000000
0.013656 0.068655 0.100000 0.098017 0.995185 0.000000
0.013656 0.068655 -0.100000 0.098017 0.995185 0.000000
0.013656 0.068655 -0.100000 0.290285 0.956940 0.000000
0.013656 0.068655 0.100000 0.290285 0.956940 0.000000
0.026788 0.064672 0.100000 0.290285 0.956940 0.000000
0.026788 0.064672 -0.100000 0.290285 0.956940 0.000000
0.026788 0.064672 -0.100000 0.471397 0.881921 0.000000
0.026788 0.064672 0.100000 0.471397 0.881921 0.000000
0.038890 0.058203 0.100000 0.471397 0.881921 0.000000
0.038890 0.058203 -0.100000 0.471397 0.881921 0.000000
0.038890 0.058203 -0.100000 0.634393 0.773010 0.000000
0.038890 0.058203 0.100000 0.634393 0.773010 0.000000
0.049498 0.049498 0.100000 0.634393 0.773010 0.000000
0.049498 0.049498 -0.100000 0.634393 0.773010 0.000000
0.049498 0.049498 -0.100000 0.773010 0.634393 0.000000
0.049498 0.049498 0.100000 0.773010 0.634393 0.000000
0.058203 0.038890 0.100000 0.773010 0.634393 0.000000
0.058203 0.038890 -0.100000 0.773010 0.634393 0.000000
0.058203 0.038890 -0.100000 0.881921 0.471397 0.000000
0.058203 0.038890 0.100000 0.881921 0.471397 0.000000
0.064672 0.026788 0.100000 0.881921 0.471397 0.000000
0.064672 0.026788 -0.100000 0.881921 0.471397 0.000000
0.064672 0.026788 -0.100000 0.956940 0.290285 0.000000
0.064672 0.026788 0.100000 0.956940 0.290285 0.000000
0.068655 0.013656 0.100000 0.956940 0.290285 0.000000
0.068655 0.013656 -0.100000 0.956940 0.290285 0.000000
0.068655 0.013656 -0.100000 0.995185 0.098017 0.000000
0.068655 0.013656 0.100000 0.995185 0.098017 0.000000
0.070000 0.000000 0.100000 0.995185 0.098017 0.000000
0.070000 0.000000 -0.100000 0.995185 0.098017 0.000000
0.070000 0.000000 -0.100000 0.995185 -0.098017 0.000000
0.070000 0.000000 0.100000 0.995185 -0.098017 0.000000
0.068655 -0.013656 0.100000 0.995185 -0.098017 0.000000
0.068655 -0.013656 -0.100000 0.995185 -0.098017 0.000000
0.068655 -0.013656 -0.100000 0.956940 -0.290285 0.000000
0.068655 -0.013656 0.100000 0.956940 -0.290285 0.000000
0.064672 -0.026788 0.100000 0.956940 -0.290285 0.000000
0.064672 -0.026788 -0.100000 0.956940 -0.290285 0.000000
0.064672 -0.026788 -0.100000 0.881921 -0.471396 0.000000
0.064672 -0.026788 0.100000 0.881921 -0.471396 0.000000
0.058203 -0.038890 0.100000 0.881921 -0.471396 0.000000
0.058203 -0.038890 -0.100000 0.881921 -0.471396 0.000000
0.058203 -0.038890 -0.100000 0.773010 -0.634393 0.000000
0.058203 -0.038890 0.100000 0.773010 -0.634393 0.000000
0.049498 -0.049498 0.100000 0.773010 -0.634393 0.000000
0.049498 -0.049498 -0.100000 0.773010 -0.634393 0.000000
0.049498 -0.049498 -0.100000 0.634393 -0.773010 0.000000
0.049498 -0.049498 0.100000 0.634393 -0.773010 0.000000
0.038890 -0.058203 0.100000 0.634393 -0.773010 0.000000
0.038890 -0.058203 -0.100000 0.634393 -0.773010 0.000000
0.038890 -0.058203 -0.100000 0.471397 -0.881921 0.000000
0.038890 -0.058203 0.100000 0.471397 -0.881921 0.000000
0.026788 -0.064672 0.100000 0.471397 -0.881921 0.000000
0.026788 -0.064672 -0.100000 0.471397 -0.881921 0.000000
0.026788 -0.064672 -0.100000 0.290284 -0.956940 0.000000
0.026788 -0.064672 0.100000 0.290284 -0.956940 0.000000
0.013656 -0.068655 0.100000 0.290284 -0.956940 0.000000
0.013656 -0.068655 -0.100000 0.290284 -0.956940 0.000000
0.013656 -0.068655 -0.100000 0.098017 -0.995185 0.000000
0.013656 -0.068655 0.100000 0.098017 -0.995185 0.000000
-0.000000 -0.070000 0.100000 0.098017 -0.995185 0.000000
-0.000000 -0.070000 -0.100000 0.098017 -0.995185 0.000000
-0.000000 -0.070000 -0.100000 -0.098018 -0.995185 0.000000
-0.000000 -0.070000 0.100000 -0.098018 -0.995185 0.000000
-0.013656 -0.068655 0.100000 -0.098018 -0.995185 0.000000
-0.013656 -0.068655 -0.100000 -0.098018 -0.995185 0.000000
-0.013656 -0.068655 -0.100000 -0.290285 -0.956940 0.000000
-0.013656 -0.068655 0.100000 -0.290285 -0.956940 0.000000
-0.026788 -0.064672 0.100000 -0.290285 -0.956940 0.000000
-0.026788 -0.064672 -0.100000 -0.290285 -0.956940 0.000000
-0.026788 -0.064672 -0.100000 -0.471397 -0.881921 0.000000
-0.026788 -0.064672 0.100000 -0.471397 -0.881921 0.000000
-0.038890 -0.058203 0.100000 -0.471397 -0.881921 0.000000
-0.038890 -0.058203 -0.100000 -0.471397 -0.881921 0.000000
-0.038890 -0.058203 -0.100000 -0.634394 -0.773010 0.000000
-0.038890 -0.058203 0.100000 -0.634394 -0.773010 0.000000
-0.049498 -0.049497 0.100000 -0.634394 -0.773010 0.000000
-0.049498 -0.049497 -0.100000 -0.634394 -0.773010 0.000000
-0.049498 -0.049497 -0.100000 -0.773011 -0.634393 0.000000
-0.049498 -0.049497 0.100000 -0.773011 -0.634393 0.000000
-0.058203 -0.038890 0.100000 -0.773011 -0.634393 0.000000
-0.058203 -0.038890 -0.100000 -0.773011 -0.634393 0.000000
-0.058203 -0.038890 -0.100000 -0.881922 -0.471396 0.000000
-0.058203 -0.038890 0.100000 -0.881922 -0.471396 0.000000
-0.064672 -0.026788 0.100000 -0.881922 -0.471396 0.000000
-0.064672 -0.026788 -0.100000 -0.881922 -0.471396 0.000000
-0.064672 -0.026788 -0.100000 -0.956941 -0.290284 0.000000
-0.064672 -0.026788 0.100000 -0.956941 -0.290284 0.000000
-0.068655 -0.013656 0.100000 -0.956941 -0.290284 0.000000
-0.068655 -0.013656 -0.100000 -0.956941 -0.290284 0.000000
-0.068655 -0.013656 -0.100000 -0.995185 -0.098016 0.000000
-0.068655 -0.013656 0.100000 -0.995185 -0.098016 0.000000
-0.070000 0.000000 0.100000 -0.995185 -0.098016 0.000000
-0.070000 0.000000 -0.100000 -0.995185 -0.098016 0.000000
-0.070000 0.000000 -0.100000 -0.995185 0.098018 0.000000
-0.070000 0.000000 0.100000 -0.995185 0.098018 0.000000
-0.068655 0.013656 0.100000 -0.995185 0.098018 0.000000
-0.068655 0.013656 -0.100000 -0.995185 0.098018 0.000000
-0.068655 0.013656 -0.100000 -0.956940 0.290286 0.000000
-0.068655 0.013656 0.100000 -0.956940 0.290286 0.000000
-0.064672 0.026788 0.100000 -0.956940 0.290286 0.000000
-0.064672 0.026788 -0.100000 -0.956940 0.290286 0.000000
-0.064672 0.026788 -0.100000 -0.881921 0.471398 0.000000
-0.064672 0.026788 0.100000 -0.881921 0.471398 0.000000
-0.058203 0.038890 0.100000 -0.881921 0.471398 0.000000
-0.058203 0.038890 -0.100000 -0.881921 0.471398 0.000000
-0.058203 0.038890 -0.100000 -0.773010 0.634394 0.000000
-0.058203 0.038890 0.100000 -0.773010 0.634394 0.000000
-0.049497 0.049498 0.100000 -0.773010 0.634394 0.000000
-0.049497 0.049498 -0.100000 -0.773010 0.634394 0.000000
-0.049497 0.049498 -0.100000 -0.634392 0.773011 0.000000
-0.049497 0.049498 0.100000 -0.634392 0.773011 0.000000
-0.038890 0.058203 0.100000 -0.634392 0.773011 0.000000
-0.038890 0.058203 -0.100000 -0.634392 0.773011 0.000000
-0.038890 0.058203 -0.100000 -0.471395 0.881922 0.000000
-0.038890 0.058203 0.100000 -0.471395 0.881922 0.000000
-0.026788 0.064672 0.100000 -0.471395 0.881922 0.000000
-0.026788 0.064672 -0.100000 -0.471395 0.881922 0.000000
0.013656 0.068655 0.100000 -0.000000 0.000000 1.000000
0.000000 0.070000 0.100000 -0.000000 0.000000 1.000000
-0.013656 0.068655 0.100000 -0.000000 0.000000 1.000000
-0.026788 0.064672 0.100000 -0.000000 0.000000 1.000000
0.026788 0.064672 0.100000 0.000000 -0.000000 1.000000
-0.038890 0.058203 0.100000 0.000000 -0.000000 1.000000
0.038890 0.058203 0.100000 0.000000 0.000000 1.000000
-0.049497 0.049498 0.100000 0.000000 -0.000000 1.000000
0.049498 0.049498 0.100000 0.000000 0.000000 1.000000
-0.058203 0.038890 0.100000 0.000000 -0.000000 1.000000
0.058203 0.038890 0.100000 0.000000 0.000000 1.000000
-0.064672 0.026788 0.100000 0.000000 -0.000000 1.000000
0.064672 0.026788 0.100000 0.000000 0.000000 1.000000
-0.068655 0.013656 0.100000 0.000000 -0.000000 1.000000
0.068655 0.013656 0.100000 0.000000 0.000000 1.000000
-0.070000 0.000000 0.100000 0.000000 -0.000000 1.000000
0.070000 0.000000 0.100000 0.000000 0.000000 1.000000
-0.068655 -0.013656 0.100000 0.000000 0.000000 1.000000
0.068655 -0.013656 0.100000 0.000000 0.000000 1.000000
-0.064672 -0.026788 0.100000 0.000000 0.000000 1.000000
0.064672 -0.026788 0.100000 0.000000 0.000000 1.000000
-0.058203 -0.038890 0.100000 0.000000 0.000000 1.000000
0.058203 -0.038890 0.100000 0.000000 0.000000 1.000000
-0.049498 -0.049497 0.100000 0.000000 0.000000 1.000000
0.049498 -0.049498 0.100000 0.000000 0.000000 1.000000
-0.038890 -0.058203 0.100000 0.000000 0.000000 1.000000
0.038890 -0.058203 0.100000 0.000000 0.000000 1.000000
-0.026788 -0.064672 0.100000 0.000000 0.000000 1.000000
0.026788 -0.064672 0.100000 0.000000 0.000000 1.000000
-0.013656 -0.068655 0.100000 0.000000 0.000000 1.000000
0.013656 -0.068655 0.100000 0.000000 0.000000 1.000000
-0.000000 -0.070000 0.100000 0.000000 0.000000 1.000000
0.000000 0.070000 0.100000 -0.098017 0.995185 0.000000
0.000000 0.070000 -0.100000 -0.098017 0.995185 0.000000
-0.013656 0.068655 -0.100000 -0.098017 0.995185 0.000000
-0.013656 0.068655 0.100000 -0.098017 0.995185 0.000000
-0.026788 0.064672 -0.100000 -0.290283 0.956941 0.000000
-0.026788 0.064672 0.100000 -0.290283 0.956941 0.000000
-0.013656 0.068655 0.100000 -0.290283 0.956941 0.000000
-0.013656 0.068655 -0.100000 -0.290283 0.956941 0.000000
0.000000 0.070000 -0.100000 0.000000 0.000000 -1.000000
0.013656 0.068655 -0.100000 0.000000 0.000000 -1.000000
-0.013656 0.068655 -0.100000 0.000000 0.000000 -1.000000
-0.026788 0.064672 -0.100000 0.000000 -0.000000 -1.000000
0.026788 0.064672 -0.100000 0.000000 0.000000 -1.000000
-0.038890 0.058203 -0.100000 0.000000 -0.000000 -1.000000
0.038890 0.058203 -0.100000 0.000000 0.000000 -1.000000
-0.049497 0.049498 -0.100000 0.000000 -0.000000 -1.000000
0.049498 0.049498 -0.100000 0.000000 0.000000 -1.000000
-0.058203 0.038890 -0.100000 0.000000 -0.000000 -1.000000
0.058203 0.038890 -0.100000 0.000000 0.000000 -1.000000
-0.064672 0.026788 -0.100000 0.000000 -0.000000 -1.000000
0.064672 0.026788 -0.100000 0.000000 0.000000 -1.000000
-0.068655 0.013656 -0.100000 0.000000 -0.000000 -1.000000
0.068655 0.013656 -0.100000 0.000000 0.000000 -1.000000
-0.070000 0.000000 -0.100000 0.000000 -0.000000 -1.000000
0.070000 0.000000 -0.100000 0.000000 0.000000 -1.000000
-0.068655 -0.013656 -0.100000 0.000000 0.000000 -1.000000
0.068655 -0.013656 -0.100000 0.000000 0.000000 -1.000000
-0.064672 -0.026788 -0.100000 0.000000 0.000000 -1.000000
0.064672 -0.026788 -0.100000 0.000000 0.000000 -1.000000
-0.058203 -0.038890 -0.100000 0.000000 0.000000 -1.000000
0.058203 -0.038890 -0.100000 0.000000 0.000000 -1.000000
-0.049498 -0.049497 -0.100000 0.000000 0.000000 -1.000000
0.049498 -0.049498 -0.100000 0.000000 0.000000 -1.000000
-0.038890 -0.058203 -0.100000 0.000000 0.000000 -1.000000
0.038890 -0.058203 -0.100000 0.000000 0.000000 -1.000000
-0.026788 -0.064672 -0.100000 0.000000 0.000000 -1.000000
0.026788 -0.064672 -0.100000 0.000000 0.000000 -1.000000
-0.013656 -0.068655 -0.100000 0.000000 0.000000 -1.000000
0.013656 -0.068655 -0.100000 0.000000 0.000000 -1.000000
-0.000000 -0.070000 -0.100000 0.000000 0.000000 -1.000000
4 0 1 2 3
4 4 5 6 7
4 8 9 10 11
4 12 13 14 15
4 16 17 18 19
4 20 21 22 23
4 24 25 26 27
4 28 29 30 31
4 32 33 34 35
4 36 37 38 39
4 40 41 42 43
4 44 45 46 47
4 48 49 50 51
4 52 53 54 55
4 56 57 58 59
4 60 61 62 63
4 64 65 66 67
4 68 69 70 71
4 72 73 74 75
4 76 77 78 79
4 80 81 82 83
4 84 85 86 87
4 88 89 90 91
4 92 93 94 95
4 96 97 98 99
4 100 101 102 103
4 104 105 106 107
4 108 109 110 111
4 112 113 114 115
4 116 117 118 119
3 120 121 122
3 120 122 123
3 120 123 124
3 123 125 124
3 125 126 124
3 125 127 126
3 127 128 126
3 127 129 128
3 129 130 128
3 129 131 130
3 131 132 130
3 131 133 132
3 133 134 132
3 133 135 134
3 135 136 134
3 135 137 136
3 137 138 136
3 137 139 138
3 139 140 138
3 139 141 140
3 141 142 140
3 141 143 142
3 143 144 142
3 143 145 144
3 145 146 144
3 145 147 146
3 147 148 146
3 147 149 148
3 149 150 148
3 149 151 150
4 152 153 154 155
4 156 157 158 159
3 160 161 162
3 161 163 162
3 161 164 163
3 164 165 163
3 164 166 165
3 166 167 165
3 166 168 167
3 168 169 167
3 168 170 169
3 170 171 169
3 170 172 171
3 172 173 171
3 172 174 173
3 174 175 173
3 174 176 175
3 176 177 175
3 176 178 177
3 178 179 177
3 178 180 179
3 180 181 179
3 180 182 181
3 182 183 181
3 182 184 183
3 184 185 183
3 184 186 185
3 186 187 185
3 186 188 187
3 188 189 187
3 188 190 189
3 190 191 189
8 6 7 8 9 10 11 12 13 0.427916 -0.481062 -0.981988 -0.943479 1.625654 0.173817 0.252423 0.242524 -0.035135 2.183498 -0.235117 -0.225897 0.102128 -0.003236 0.274877 0.460176 0.506233 0.190125 0.215447 0.556124 0
6 14 15 16 17 18 19 1.661367 -0.074589 -0.157370 -0.151199 0.258733 0.448567 1.007238 0.967739 0.003578 2.196024 -0.209769 -0.201543 0.097648 -0.016974 0.261137 0.446974 0.502636 0.163353 0.171965 0.575098 1
6 20 21 22 23 24 25 0.745734 0.420148 0.912058 0.876291 -1.506796 0.241779 0.448998 0.431390 0.023287 2.189592 -0.223267 -0.214512 0.109756 -0.011907 0.264199 0.449917 0.522094 0.171933 0.183761 0.571131 2
2 26 27 0.026794 0.545861 1.009674 0.970079 -1.681085 0.032212 0.014314 0.013753 0.018171 2.174924 -0.252289 -0.242395 0.089421 -0.009153 0.262684 0.448461 0.503606 0.181863 0.057845 0.560803 3
4 28 29 60 61 -0.984920 0.343987 0.829061 0.796549 -1.361987 -0.175871 -0.604167 -0.580475 0.044933 2.209081 -0.175887 -0.168989 0.074654 -0.016893 0.272432 0.457827 0.470999 0.175904 0.110128 0.564151 4
3 0 1 2 -1.660371 0.130586 0.153492 0.147473 -0.261744 -0.478540 -1.003979 -0.964607 0.041866 2.187063 -0.227517 -0.218595 0.054082 -0.003450 0.277307 0.462510 0.465538 0.193348 0.087991 0.553270 5
3 3 4 5 -1.576831 -0.052805 -0.359626 -0.345523 0.578362 -0.443071 -0.956004 -0.918514 0.078710 2.197771 -0.200055 -0.192210 0.052210 -0.001411 0.292103 0.476726 0.453069 0.209789 0.088432 0.537537 6
